<svg xmlns="http://www.w3.org/2000/svg" xmlns:xlink="http://www.w3.org/1999/xlink" width="500" zoomAndPan="magnify" viewBox="0 0 375 374.999991" height="500" preserveAspectRatio="xMidYMid meet" version="1.0"><defs><g/><clipPath id="fc61a8b45b"><rect x="0" width="245" y="0" height="92"/></clipPath><clipPath id="c3630325c9"><rect x="0" width="160" y="0" height="19"/></clipPath></defs><g transform="matrix(1, 0, 0, 1, 62, 141)"><g clip-path="url(#fc61a8b45b)"><g fill="#1e3608" fill-opacity="1"><g transform="translate(9.149477, 63.017386)"><g><path d="M 26.515625 -7.03125 C 23.160156 -7.03125 20.046875 -7.476562 17.171875 -8.375 C 13.878906 -5.644531 11.40625 -3.75 9.75 -2.6875 C 6.6875 -0.78125 3.566406 0.171875 0.390625 0.171875 C -3.234375 0.171875 -5.578125 -0.875 -6.640625 -2.96875 C -6.953125 -3.601562 -7.109375 -4.226562 -7.109375 -4.84375 C -7.109375 -5.457031 -7 -5.953125 -6.78125 -6.328125 C -6.570312 -6.703125 -6.316406 -6.992188 -6.015625 -7.203125 C -5.367188 -7.648438 -4.625 -7.875 -3.78125 -7.875 C -2.601562 -7.875 -2.015625 -7.347656 -2.015625 -6.296875 C -2.015625 -5.816406 -2.207031 -5.40625 -2.59375 -5.0625 C -2.988281 -4.726562 -3.519531 -4.5625 -4.1875 -4.5625 C -4.863281 -4.5625 -5.363281 -4.675781 -5.6875 -4.90625 L -5.6875 -4.671875 C -5.6875 -2.078125 -3.566406 -0.78125 0.671875 -0.78125 C 3.617188 -0.78125 6.953125 -2.078125 10.671875 -4.671875 L 15.9375 -8.796875 C 12.59375 -10.046875 9.921875 -11.816406 7.921875 -14.109375 C 5.984375 -16.273438 4.945312 -18.664062 4.8125 -21.28125 C 4.664062 -23.84375 5.515625 -26.035156 7.359375 -27.859375 C 9.285156 -29.765625 11.898438 -30.71875 15.203125 -30.71875 C 19.796875 -30.71875 23.660156 -28.75 26.796875 -24.8125 C 27.734375 -23.613281 28.535156 -22.328125 29.203125 -20.953125 C 36.765625 -28.210938 41.710938 -32.878906 44.046875 -34.953125 L 49.84375 -39.984375 C 57.664062 -46.410156 63.425781 -49.625 67.125 -49.625 C 67.550781 -49.625 67.765625 -49.554688 67.765625 -49.421875 C 67.765625 -49.253906 67.566406 -49.097656 67.171875 -48.953125 C 66.785156 -48.816406 66.359375 -48.507812 65.890625 -48.03125 C 65.421875 -47.5625 64.738281 -46.773438 63.84375 -45.671875 L 60.375 -41.25 L 36.4375 -9.4375 C 43.007812 -11.394531 48.132812 -14.894531 51.8125 -19.9375 C 53 -21.539062 53.789062 -22.882812 54.1875 -23.96875 C 54.726562 -25.40625 55.054688 -26.125 55.171875 -26.125 C 55.242188 -26.125 55.359375 -26.019531 55.515625 -25.8125 C 55.671875 -25.613281 55.726562 -25.191406 55.6875 -24.546875 C 55.65625 -23.898438 55.484375 -23.132812 55.171875 -22.25 C 54.867188 -21.363281 54.484375 -20.519531 54.015625 -19.71875 C 53.234375 -18.375 51.945312 -16.851562 50.15625 -15.15625 C 46.550781 -11.644531 41.601562 -9.242188 35.3125 -7.953125 L 29.265625 0.03125 L 27 -0.109375 C 26.25 -0.148438 25.65625 -0.171875 25.21875 -0.171875 C 24.78125 -0.171875 24.410156 -0.148438 24.109375 -0.109375 L 23.109375 0.03125 L 28.34375 -6.4375 C 28.414062 -6.550781 28.488281 -6.660156 28.5625 -6.765625 C 28.632812 -6.867188 28.691406 -6.984375 28.734375 -7.109375 C 27.984375 -7.054688 27.242188 -7.03125 26.515625 -7.03125 Z M 29.6875 -19.859375 C 30.65625 -17.390625 31.140625 -15.269531 31.140625 -13.5 C 31.140625 -11.726562 31 -10.335938 30.71875 -9.328125 L 43.828125 -25.203125 C 52.472656 -35.265625 57.832031 -41.394531 59.90625 -43.59375 C 61.988281 -45.800781 63.523438 -47.363281 64.515625 -48.28125 L 62.140625 -47.296875 C 58.960938 -45.898438 54.414062 -42.644531 48.5 -37.53125 L 41.078125 -30.828125 Z M 16.796875 -9.515625 C 21.390625 -13.609375 25.253906 -17.175781 28.390625 -20.21875 C 26.429688 -24.675781 23.445312 -27.597656 19.4375 -28.984375 C 18.09375 -29.429688 16.78125 -29.65625 15.5 -29.65625 C 14.21875 -29.65625 13.070312 -29.425781 12.0625 -28.96875 C 11.0625 -28.507812 10.1875 -27.898438 9.4375 -27.140625 C 7.8125 -25.515625 7 -23.582031 7 -21.34375 C 7 -17.414062 8.835938 -14.175781 12.515625 -11.625 C 13.734375 -10.78125 15.160156 -10.078125 16.796875 -9.515625 Z M 18.03125 -9.125 C 20.625 -8.394531 23.519531 -8.03125 26.71875 -8.03125 C 27.539062 -8.03125 28.367188 -8.0625 29.203125 -8.125 C 29.742188 -9.519531 30.015625 -10.863281 30.015625 -12.15625 C 30.015625 -14.5625 29.625 -16.859375 28.84375 -19.046875 C 23.539062 -14.054688 19.9375 -10.75 18.03125 -9.125 Z M 18.03125 -9.125 "/></g></g></g><g fill="#1e3608" fill-opacity="1"><g transform="translate(62.730409, 63.017386)"><g><path d="M 1.234375 -0.671875 C 0.691406 -0.785156 0.0078125 -0.84375 -0.8125 -0.84375 C -2.25 -0.84375 -3.359375 -0.726562 -4.140625 -0.5 L 8.125 -18.03125 C 9.65625 -20.175781 10.445312 -21.445312 10.5 -21.84375 C 10.59375 -22.625 10.34375 -23.015625 9.75 -23.015625 C 8.882812 -23.015625 6.71875 -20.859375 3.25 -16.546875 L 0.984375 -13.75 C 0.796875 -13.65625 0.601562 -13.707031 0.40625 -13.90625 C 0.207031 -14.101562 0.15625 -14.25 0.25 -14.34375 C 0.925781 -15.082031 1.695312 -16.007812 2.5625 -17.125 C 3.425781 -18.238281 4.328125 -19.316406 5.265625 -20.359375 C 7.578125 -22.929688 9.5 -24.21875 11.03125 -24.21875 C 13.625 -24.21875 14.445312 -22.882812 13.5 -20.21875 C 13.3125 -19.65625 12.898438 -18.925781 12.265625 -18.03125 L 4.84375 -7.703125 L 5.015625 -7.3125 C 11.359375 -14.644531 16.015625 -19.382812 18.984375 -21.53125 C 21.335938 -23.320312 23.515625 -24.21875 25.515625 -24.21875 C 26.890625 -24.21875 27.972656 -23.835938 28.765625 -23.078125 C 29.410156 -22.441406 29.710938 -21.769531 29.671875 -21.0625 C 29.640625 -20.351562 29.59375 -19.816406 29.53125 -19.453125 C 29.46875 -19.085938 29.378906 -18.71875 29.265625 -18.34375 C 28.984375 -17.5625 28.488281 -16.617188 27.78125 -15.515625 C 32.820312 -20.648438 36.640625 -23.488281 39.234375 -24.03125 C 39.753906 -24.15625 40.328125 -24.21875 40.953125 -24.21875 C 41.578125 -24.21875 42.15625 -24.109375 42.6875 -23.890625 C 43.21875 -23.679688 43.644531 -23.410156 43.96875 -23.078125 C 44.582031 -22.460938 44.882812 -21.722656 44.875 -20.859375 C 44.863281 -20.003906 44.695312 -19.128906 44.375 -18.234375 C 44.0625 -17.335938 43.523438 -16.28125 42.765625 -15.0625 C 41.191406 -12.539062 38.53125 -9.253906 34.78125 -5.203125 C 33.226562 -3.566406 32.414062 -2.613281 32.34375 -2.34375 C 32.269531 -2.070312 32.234375 -1.867188 32.234375 -1.734375 L 31.984375 -1.703125 C 31.984375 -1.128906 32.65625 -0.84375 34 -0.84375 C 35.34375 -0.84375 36.570312 -1.144531 37.6875 -1.75 C 38.8125 -2.351562 39.953125 -3.117188 41.109375 -4.046875 C 42.265625 -4.972656 43.390625 -5.988281 44.484375 -7.09375 C 45.578125 -8.207031 46.570312 -9.257812 47.46875 -10.25 L 49.734375 -12.859375 C 50.347656 -13.617188 50.757812 -14.113281 50.96875 -14.34375 L 51.71875 -13.75 C 51.476562 -13.507812 51.035156 -12.992188 50.390625 -12.203125 C 49.742188 -11.421875 48.953125 -10.507812 48.015625 -9.46875 C 47.085938 -8.4375 46.046875 -7.351562 44.890625 -6.21875 C 43.734375 -5.09375 42.546875 -4.054688 41.328125 -3.109375 C 38.472656 -0.921875 36.078125 0.171875 34.140625 0.171875 C 32.085938 0.171875 30.640625 -0.367188 29.796875 -1.453125 C 29.535156 -1.773438 29.40625 -2.160156 29.40625 -2.609375 C 29.40625 -3.054688 29.484375 -3.570312 29.640625 -4.15625 C 29.796875 -4.75 30.144531 -5.492188 30.6875 -6.390625 C 31.769531 -8.234375 33.347656 -10.320312 35.421875 -12.65625 C 37.492188 -14.988281 38.84375 -16.554688 39.46875 -17.359375 C 40.09375 -18.160156 40.601562 -18.851562 41 -19.4375 C 41.726562 -20.59375 42.09375 -21.46875 42.09375 -22.0625 C 42.09375 -22.90625 41.492188 -23.328125 40.296875 -23.328125 C 37.941406 -23.328125 33.863281 -20.382812 28.0625 -14.5 C 25.59375 -12 22.835938 -8.828125 19.796875 -4.984375 L 16.5 -0.671875 C 15.957031 -0.785156 15.273438 -0.84375 14.453125 -0.84375 C 13.109375 -0.84375 12.003906 -0.726562 11.140625 -0.5 C 14.617188 -4.757812 16.535156 -7.113281 16.890625 -7.5625 C 22.191406 -14.5625 25.128906 -18.519531 25.703125 -19.4375 C 26.472656 -20.78125 26.859375 -21.710938 26.859375 -22.234375 C 26.859375 -22.960938 26.28125 -23.328125 25.125 -23.328125 C 23.59375 -23.328125 21.804688 -22.503906 19.765625 -20.859375 C 15.453125 -17.410156 10.375 -12.117188 4.53125 -4.984375 Z M 1.234375 -0.671875 "/></g></g></g><g fill="#1e3608" fill-opacity="1"><g transform="translate(113.448516, 63.017386)"><g><path d="M 15.90625 -5.6875 C 15.03125 -5.6875 14.394531 -6.039062 14 -6.75 C 11.195312 -3.570312 8.164062 -1.460938 4.90625 -0.421875 C 3.820312 -0.0859375 2.769531 0.078125 1.75 0.078125 C 0.726562 0.078125 -0.144531 -0.0390625 -0.875 -0.28125 C -1.613281 -0.519531 -2.21875 -0.847656 -2.6875 -1.265625 C -4.59375 -2.921875 -4.78125 -5.765625 -3.25 -9.796875 C -2.664062 -11.367188 -1.90625 -12.835938 -0.96875 -14.203125 C -0.0390625 -15.578125 1.003906 -16.847656 2.171875 -18.015625 C 3.335938 -19.179688 4.59375 -20.222656 5.9375 -21.140625 C 8.976562 -23.191406 11.945312 -24.21875 14.84375 -24.21875 C 16.09375 -24.21875 17.171875 -23.890625 18.078125 -23.234375 C 18.984375 -22.585938 19.472656 -21.65625 19.546875 -20.4375 C 19.617188 -19.226562 19.546875 -18.09375 19.328125 -17.03125 C 19.117188 -15.976562 18.800781 -14.921875 18.375 -13.859375 C 17.53125 -11.691406 16.332031 -9.640625 14.78125 -7.703125 C 14.9375 -7.023438 15.382812 -6.6875 16.125 -6.6875 C 16.875 -6.6875 17.582031 -6.851562 18.25 -7.1875 C 18.925781 -7.53125 19.597656 -7.953125 20.265625 -8.453125 C 20.941406 -8.960938 21.601562 -9.53125 22.25 -10.15625 C 22.894531 -10.78125 23.488281 -11.378906 24.03125 -11.953125 L 25.375 -13.4375 C 25.75 -13.882812 26.019531 -14.1875 26.1875 -14.34375 L 26.96875 -13.75 C 26.664062 -13.46875 26.273438 -13.066406 25.796875 -12.546875 C 25.328125 -12.023438 24.800781 -11.472656 24.21875 -10.890625 C 24.21875 -10.890625 23.59375 -10.273438 22.34375 -9.046875 C 19.914062 -6.804688 17.769531 -5.6875 15.90625 -5.6875 Z M 1.234375 -1.265625 C 1.609375 -1.078125 2.140625 -0.984375 2.828125 -0.984375 C 4.359375 -0.984375 6.328125 -1.84375 8.734375 -3.5625 C 10.566406 -4.882812 12.203125 -6.40625 13.640625 -8.125 L 13.640625 -8.265625 C 13.640625 -10.273438 14.394531 -11.785156 15.90625 -12.796875 C 16.300781 -13.078125 16.675781 -13.273438 17.03125 -13.390625 C 18.164062 -15.796875 18.695312 -17.765625 18.625 -19.296875 C 18.488281 -21.722656 17.59375 -22.9375 15.9375 -22.9375 C 13.15625 -22.9375 9.253906 -19.800781 4.234375 -13.53125 C 1.015625 -9.476562 -0.5 -6.320312 -0.3125 -4.0625 C -0.3125 -2.769531 0.203125 -1.835938 1.234375 -1.265625 Z M 1.234375 -1.265625 "/></g></g></g><g fill="#1e3608" fill-opacity="1"><g transform="translate(139.390736, 63.017386)"><g><path d="M 6.109375 -2.765625 C 6.109375 -1.671875 6.570312 -1.125 7.5 -1.125 C 8.4375 -1.125 9.460938 -1.40625 10.578125 -1.96875 C 11.703125 -2.539062 12.847656 -3.257812 14.015625 -4.125 C 15.179688 -5 16.332031 -5.96875 17.46875 -7.03125 L 20.53125 -10.109375 C 21.476562 -11.078125 22.289062 -11.945312 22.96875 -12.71875 L 24.421875 -14.34375 L 25.125 -13.75 C 24.675781 -13.351562 24.078125 -12.726562 23.328125 -11.875 L 20.78125 -9.046875 C 15.03125 -2.960938 10.082031 0.078125 5.9375 0.078125 C 4.59375 0.078125 3.515625 -0.25 2.703125 -0.90625 C 1.890625 -1.570312 1.484375 -2.457031 1.484375 -3.5625 C 1.484375 -7.082031 6.597656 -12.269531 16.828125 -19.125 C 11.828125 -19.945312 8.375 -20.78125 6.46875 -21.625 C 4.914062 -18.425781 2.523438 -15.164062 -0.703125 -11.84375 C -1.460938 -11.0625 -1.929688 -10.632812 -2.109375 -10.5625 C -2.285156 -10.5 -2.394531 -10.445312 -2.4375 -10.40625 C -2.488281 -10.375 -2.523438 -10.4375 -2.546875 -10.59375 C -2.566406 -10.757812 -2.566406 -10.882812 -2.546875 -10.96875 C -2.523438 -11.050781 -2.476562 -11.140625 -2.40625 -11.234375 C -1.300781 -12.484375 -0.273438 -13.6875 0.671875 -14.84375 C 2.859375 -17.582031 4.472656 -20.007812 5.515625 -22.125 C 4.660156 -22.664062 4.175781 -23.242188 4.0625 -23.859375 C 3.945312 -24.472656 3.953125 -25.046875 4.078125 -25.578125 C 4.210938 -26.109375 4.421875 -26.582031 4.703125 -27 C 5.316406 -27.925781 6.023438 -28.390625 6.828125 -28.390625 C 8.304688 -28.390625 9.046875 -27.84375 9.046875 -26.75 C 9.046875 -26.207031 8.941406 -25.75 8.734375 -25.375 L 8.09375 -24.28125 C 7.664062 -23.738281 7.453125 -23.113281 7.453125 -22.40625 C 7.453125 -21.988281 8.351562 -21.585938 10.15625 -21.203125 C 11.957031 -20.828125 13.238281 -20.570312 14 -20.4375 C 15.644531 -20.125 16.953125 -19.945312 17.921875 -19.90625 C 18.578125 -19.875 18.90625 -19.695312 18.90625 -19.375 C 18.90625 -19.15625 18.519531 -18.738281 17.75 -18.125 C 16.988281 -17.519531 16.148438 -16.78125 15.234375 -15.90625 C 14.316406 -15.03125 13.421875 -14.113281 12.546875 -13.15625 C 11.671875 -12.207031 10.84375 -11.238281 10.0625 -10.25 C 9.289062 -9.257812 8.613281 -8.304688 8.03125 -7.390625 C 6.75 -5.410156 6.109375 -3.867188 6.109375 -2.765625 Z M 6.109375 -2.765625 "/></g></g></g><g fill="#1e3608" fill-opacity="1"><g transform="translate(163.565774, 63.017386)"><g><path d="M 13.65625 -3.046875 C 12.164062 -2.097656 10.550781 -1.316406 8.8125 -0.703125 C 7.082031 -0.0859375 5.441406 0.21875 3.890625 0.21875 C 2.335938 0.21875 1.148438 0.0546875 0.328125 -0.265625 C -0.484375 -0.585938 -1.144531 -1.03125 -1.65625 -1.59375 C -3.875 -4 -3.863281 -7.546875 -1.625 -12.234375 C -0.65625 -14.304688 0.800781 -16.195312 2.75 -17.90625 C 4.707031 -19.613281 6.429688 -20.890625 7.921875 -21.734375 C 10.796875 -23.390625 13.492188 -24.21875 16.015625 -24.21875 C 18.515625 -24.21875 19.820312 -23.4375 19.9375 -21.875 C 20.101562 -19.351562 17.039062 -16.609375 10.75 -13.640625 C 8.4375 -12.554688 5.523438 -11.4375 2.015625 -10.28125 C 0.617188 -8.019531 -0.078125 -6.175781 -0.078125 -4.75 C -0.078125 -3.320312 0.289062 -2.304688 1.03125 -1.703125 C 1.78125 -1.109375 2.867188 -0.8125 4.296875 -0.8125 C 5.722656 -0.8125 7.265625 -1.117188 8.921875 -1.734375 C 10.585938 -2.347656 12.144531 -3.125 13.59375 -4.0625 C 15.039062 -5.007812 16.351562 -6.035156 17.53125 -7.140625 C 18.707031 -8.242188 19.75 -9.300781 20.65625 -10.3125 C 21.5625 -11.332031 22.300781 -12.210938 22.875 -12.953125 C 23.457031 -13.691406 23.859375 -14.15625 24.078125 -14.34375 L 24.8125 -13.75 C 24.507812 -13.488281 24.046875 -12.957031 23.421875 -12.15625 C 22.796875 -11.351562 22.003906 -10.4375 21.046875 -9.40625 C 20.097656 -8.382812 19.003906 -7.304688 17.765625 -6.171875 C 16.523438 -5.046875 15.15625 -4.003906 13.65625 -3.046875 Z M 2.828125 -11.515625 C 9.941406 -14.015625 14.523438 -16.503906 16.578125 -18.984375 C 17.265625 -19.804688 17.609375 -20.609375 17.609375 -21.390625 C 17.609375 -22.703125 16.992188 -23.359375 15.765625 -23.359375 C 13.597656 -23.359375 10.890625 -21.460938 7.640625 -17.671875 C 5.367188 -15.035156 3.765625 -12.984375 2.828125 -11.515625 Z M 2.828125 -11.515625 "/></g></g></g><g fill="#1e3608" fill-opacity="1"><g transform="translate(187.387376, 63.017386)"><g><path d="M -3.53125 -2.046875 C -3.53125 -1.335938 -2.960938 -0.972656 -1.828125 -0.953125 C -0.703125 -0.929688 0.425781 -1.175781 1.5625 -1.6875 C 2.707031 -2.207031 3.847656 -2.867188 4.984375 -3.671875 C 6.117188 -4.472656 7.210938 -5.375 8.265625 -6.375 C 9.328125 -7.375 10.316406 -8.367188 11.234375 -9.359375 C 12.160156 -10.347656 12.988281 -11.28125 13.71875 -12.15625 L 15.546875 -14.34375 L 16.328125 -13.75 L 14.5 -11.625 C 7.914062 -3.820312 2.390625 0.078125 -2.078125 0.078125 C -3.378906 0.078125 -4.351562 -0.179688 -5 -0.703125 C -5.644531 -1.222656 -5.96875 -1.789062 -5.96875 -2.40625 C -5.96875 -3.019531 -5.9375 -3.523438 -5.875 -3.921875 C -5.820312 -4.328125 -5.703125 -4.769531 -5.515625 -5.25 C -5.328125 -5.726562 -5.050781 -6.296875 -4.6875 -6.953125 C -4.320312 -7.617188 -3.832031 -8.421875 -3.21875 -9.359375 L 2.296875 -17.3125 L 11.421875 -30.15625 L 8.625 -30.15625 C 7.914062 -30.15625 7.5625 -30.320312 7.5625 -30.65625 C 7.5625 -31 8.007812 -31.171875 8.90625 -31.171875 L 12.125 -31.171875 L 18.65625 -40.359375 C 20.3125 -40.109375 21.953125 -40.109375 23.578125 -40.359375 L 16.75 -31.171875 L 25.875 -31.171875 C 26.53125 -31.171875 26.859375 -31 26.859375 -30.65625 C 26.859375 -30.320312 26.566406 -30.15625 25.984375 -30.15625 L 15.984375 -30.15625 L 1.34375 -10.25 C -1.175781 -6.6875 -2.617188 -4.492188 -2.984375 -3.671875 C -3.347656 -2.847656 -3.53125 -2.304688 -3.53125 -2.046875 Z M -3.53125 -2.046875 "/></g></g></g><g fill="#1e3608" fill-opacity="1"><g transform="translate(202.691173, 63.017386)"><g><path d="M -3.53125 -2.046875 C -3.53125 -1.335938 -2.960938 -0.972656 -1.828125 -0.953125 C -0.703125 -0.929688 0.425781 -1.175781 1.5625 -1.6875 C 2.707031 -2.207031 3.847656 -2.867188 4.984375 -3.671875 C 6.117188 -4.472656 7.210938 -5.375 8.265625 -6.375 C 9.328125 -7.375 10.316406 -8.367188 11.234375 -9.359375 C 12.160156 -10.347656 12.988281 -11.28125 13.71875 -12.15625 L 15.546875 -14.34375 L 16.328125 -13.75 L 14.5 -11.625 C 7.914062 -3.820312 2.390625 0.078125 -2.078125 0.078125 C -3.378906 0.078125 -4.351562 -0.179688 -5 -0.703125 C -5.644531 -1.222656 -5.96875 -1.789062 -5.96875 -2.40625 C -5.96875 -3.019531 -5.9375 -3.523438 -5.875 -3.921875 C -5.820312 -4.328125 -5.703125 -4.769531 -5.515625 -5.25 C -5.328125 -5.726562 -5.050781 -6.296875 -4.6875 -6.953125 C -4.320312 -7.617188 -3.832031 -8.421875 -3.21875 -9.359375 L 2.296875 -17.3125 L 11.421875 -30.15625 L 8.625 -30.15625 C 7.914062 -30.15625 7.5625 -30.320312 7.5625 -30.65625 C 7.5625 -31 8.007812 -31.171875 8.90625 -31.171875 L 12.125 -31.171875 L 18.65625 -40.359375 C 20.3125 -40.109375 21.953125 -40.109375 23.578125 -40.359375 L 16.75 -31.171875 L 25.875 -31.171875 C 26.53125 -31.171875 26.859375 -31 26.859375 -30.65625 C 26.859375 -30.320312 26.566406 -30.15625 25.984375 -30.15625 L 15.984375 -30.15625 L 1.34375 -10.25 C -1.175781 -6.6875 -2.617188 -4.492188 -2.984375 -3.671875 C -3.347656 -2.847656 -3.53125 -2.304688 -3.53125 -2.046875 Z M -3.53125 -2.046875 "/></g></g></g><g fill="#1e3608" fill-opacity="1"><g transform="translate(217.99497, 63.017386)"><g><path d="M 13.65625 -3.046875 C 12.164062 -2.097656 10.550781 -1.316406 8.8125 -0.703125 C 7.082031 -0.0859375 5.441406 0.21875 3.890625 0.21875 C 2.335938 0.21875 1.148438 0.0546875 0.328125 -0.265625 C -0.484375 -0.585938 -1.144531 -1.03125 -1.65625 -1.59375 C -3.875 -4 -3.863281 -7.546875 -1.625 -12.234375 C -0.65625 -14.304688 0.800781 -16.195312 2.75 -17.90625 C 4.707031 -19.613281 6.429688 -20.890625 7.921875 -21.734375 C 10.796875 -23.390625 13.492188 -24.21875 16.015625 -24.21875 C 18.515625 -24.21875 19.820312 -23.4375 19.9375 -21.875 C 20.101562 -19.351562 17.039062 -16.609375 10.75 -13.640625 C 8.4375 -12.554688 5.523438 -11.4375 2.015625 -10.28125 C 0.617188 -8.019531 -0.078125 -6.175781 -0.078125 -4.75 C -0.078125 -3.320312 0.289062 -2.304688 1.03125 -1.703125 C 1.78125 -1.109375 2.867188 -0.8125 4.296875 -0.8125 C 5.722656 -0.8125 7.265625 -1.117188 8.921875 -1.734375 C 10.585938 -2.347656 12.144531 -3.125 13.59375 -4.0625 C 15.039062 -5.007812 16.351562 -6.035156 17.53125 -7.140625 C 18.707031 -8.242188 19.75 -9.300781 20.65625 -10.3125 C 21.5625 -11.332031 22.300781 -12.210938 22.875 -12.953125 C 23.457031 -13.691406 23.859375 -14.15625 24.078125 -14.34375 L 24.8125 -13.75 C 24.507812 -13.488281 24.046875 -12.957031 23.421875 -12.15625 C 22.796875 -11.351562 22.003906 -10.4375 21.046875 -9.40625 C 20.097656 -8.382812 19.003906 -7.304688 17.765625 -6.171875 C 16.523438 -5.046875 15.15625 -4.003906 13.65625 -3.046875 Z M 2.828125 -11.515625 C 9.941406 -14.015625 14.523438 -16.503906 16.578125 -18.984375 C 17.265625 -19.804688 17.609375 -20.609375 17.609375 -21.390625 C 17.609375 -22.703125 16.992188 -23.359375 15.765625 -23.359375 C 13.597656 -23.359375 10.890625 -21.460938 7.640625 -17.671875 C 5.367188 -15.035156 3.765625 -12.984375 2.828125 -11.515625 Z M 2.828125 -11.515625 "/></g></g></g></g></g><g transform="matrix(1, 0, 0, 1, 103, 213)"><g clip-path="url(#c3630325c9)"><g fill="#1e3608" fill-opacity="1"><g transform="translate(1.228178, 13.820608)"><g><path d="M 1.5625 -9.96875 L 8.1875 -9.96875 L 8.1875 -9.265625 L 2.28125 -9.265625 L 2.28125 -5.421875 L 7.046875 -5.421875 L 7.046875 -4.703125 L 2.28125 -4.703125 L 2.28125 0 L 1.5625 0 Z M 1.5625 -9.96875 "/></g></g></g><g fill="#1e3608" fill-opacity="1"><g transform="translate(18.414475, 13.820608)"><g><path d="M 1.5625 -9.96875 L 2.28125 -9.96875 L 2.28125 -0.71875 L 7.625 -0.71875 L 7.625 0 L 1.5625 0 Z M 1.5625 -9.96875 "/></g></g></g><g fill="#1e3608" fill-opacity="1"><g transform="translate(34.888405, 13.820608)"><g><path d="M 5.90625 0.140625 C 5.21875 0.140625 4.566406 0.0078125 3.953125 -0.25 C 3.335938 -0.519531 2.800781 -0.882812 2.34375 -1.34375 C 1.882812 -1.8125 1.519531 -2.359375 1.25 -2.984375 C 0.988281 -3.609375 0.859375 -4.273438 0.859375 -4.984375 C 0.859375 -5.703125 0.988281 -6.367188 1.25 -6.984375 C 1.519531 -7.609375 1.882812 -8.148438 2.34375 -8.609375 C 2.800781 -9.078125 3.335938 -9.445312 3.953125 -9.71875 C 4.566406 -9.988281 5.21875 -10.125 5.90625 -10.125 C 6.601562 -10.125 7.257812 -9.988281 7.875 -9.71875 C 8.488281 -9.445312 9.023438 -9.078125 9.484375 -8.609375 C 9.941406 -8.148438 10.300781 -7.609375 10.5625 -6.984375 C 10.832031 -6.367188 10.96875 -5.703125 10.96875 -4.984375 C 10.96875 -4.273438 10.832031 -3.609375 10.5625 -2.984375 C 10.300781 -2.359375 9.941406 -1.8125 9.484375 -1.34375 C 9.023438 -0.882812 8.488281 -0.519531 7.875 -0.25 C 7.257812 0.0078125 6.601562 0.140625 5.90625 0.140625 Z M 5.90625 -0.5625 C 6.519531 -0.5625 7.085938 -0.675781 7.609375 -0.90625 C 8.140625 -1.132812 8.597656 -1.445312 8.984375 -1.84375 C 9.378906 -2.238281 9.691406 -2.703125 9.921875 -3.234375 C 10.148438 -3.773438 10.265625 -4.359375 10.265625 -4.984375 C 10.265625 -5.609375 10.148438 -6.1875 9.921875 -6.71875 C 9.691406 -7.257812 9.378906 -7.726562 8.984375 -8.125 C 8.597656 -8.519531 8.140625 -8.832031 7.609375 -9.0625 C 7.085938 -9.289062 6.519531 -9.40625 5.90625 -9.40625 C 5.300781 -9.40625 4.734375 -9.289062 4.203125 -9.0625 C 3.679688 -8.832031 3.222656 -8.519531 2.828125 -8.125 C 2.429688 -7.726562 2.117188 -7.257812 1.890625 -6.71875 C 1.671875 -6.1875 1.5625 -5.609375 1.5625 -4.984375 C 1.5625 -4.359375 1.671875 -3.773438 1.890625 -3.234375 C 2.117188 -2.703125 2.429688 -2.238281 2.828125 -1.84375 C 3.222656 -1.445312 3.679688 -1.132812 4.203125 -0.90625 C 4.734375 -0.675781 5.300781 -0.5625 5.90625 -0.5625 Z M 5.90625 -0.5625 "/></g></g></g><g fill="#1e3608" fill-opacity="1"><g transform="translate(55.280373, 13.820608)"><g><path d="M 1.5625 -9.96875 L 5.34375 -9.96875 C 5.789062 -9.96875 6.203125 -9.890625 6.578125 -9.734375 C 6.953125 -9.585938 7.273438 -9.382812 7.546875 -9.125 C 7.816406 -8.863281 8.023438 -8.554688 8.171875 -8.203125 C 8.328125 -7.847656 8.40625 -7.460938 8.40625 -7.046875 C 8.40625 -6.765625 8.375 -6.503906 8.3125 -6.265625 C 8.25 -6.035156 8.164062 -5.828125 8.0625 -5.640625 C 7.957031 -5.460938 7.835938 -5.300781 7.703125 -5.15625 C 7.578125 -5.019531 7.441406 -4.898438 7.296875 -4.796875 C 6.972656 -4.554688 6.609375 -4.382812 6.203125 -4.28125 L 8.625 0 L 7.84375 0 L 5.484375 -4.125 L 2.28125 -4.125 L 2.28125 0 L 1.5625 0 Z M 5.34375 -4.84375 C 5.695312 -4.84375 6.015625 -4.894531 6.296875 -5 C 6.585938 -5.113281 6.835938 -5.265625 7.046875 -5.453125 C 7.265625 -5.648438 7.425781 -5.882812 7.53125 -6.15625 C 7.632812 -6.425781 7.6875 -6.722656 7.6875 -7.046875 C 7.6875 -7.367188 7.632812 -7.664062 7.53125 -7.9375 C 7.425781 -8.207031 7.265625 -8.441406 7.046875 -8.640625 C 6.835938 -8.835938 6.585938 -8.988281 6.296875 -9.09375 C 6.015625 -9.207031 5.695312 -9.265625 5.34375 -9.265625 L 2.28125 -9.265625 L 2.28125 -4.84375 Z M 5.34375 -4.84375 "/></g></g></g><g fill="#1e3608" fill-opacity="1"><g transform="translate(73.250283, 13.820608)"><g><path d="M 4.421875 -9.96875 L 5.125 -9.96875 L 9.265625 0 L 8.484375 0 L 7.265625 -2.921875 L 2.28125 -2.921875 L 1.0625 0 L 0.28125 0 Z M 6.984375 -3.640625 L 4.78125 -8.984375 L 2.5625 -3.640625 Z M 6.984375 -3.640625 "/></g></g></g><g fill="#1e3608" fill-opacity="1"><g transform="translate(91.362667, 13.820608)"><g><path d="M 1.5625 -9.96875 L 2.28125 -9.96875 L 2.28125 -0.71875 L 7.625 -0.71875 L 7.625 0 L 1.5625 0 Z M 1.5625 -9.96875 "/></g></g></g><g fill="#1e3608" fill-opacity="1"><g transform="translate(107.836597, 13.820608)"><g/></g></g><g fill="#1e3608" fill-opacity="1"><g transform="translate(119.252708, 13.820608)"><g><path d="M 5.90625 0.140625 C 5.21875 0.140625 4.566406 0.0078125 3.953125 -0.25 C 3.335938 -0.519531 2.800781 -0.882812 2.34375 -1.34375 C 1.882812 -1.8125 1.519531 -2.359375 1.25 -2.984375 C 0.988281 -3.609375 0.859375 -4.273438 0.859375 -4.984375 C 0.859375 -5.703125 0.988281 -6.367188 1.25 -6.984375 C 1.519531 -7.609375 1.882812 -8.148438 2.34375 -8.609375 C 2.800781 -9.078125 3.335938 -9.445312 3.953125 -9.71875 C 4.566406 -9.988281 5.21875 -10.125 5.90625 -10.125 C 6.59375 -10.125 7.1875 -10.007812 7.6875 -9.78125 C 8.195312 -9.5625 8.625 -9.316406 8.96875 -9.046875 C 9.351562 -8.734375 9.6875 -8.378906 9.96875 -7.984375 L 9.46875 -7.546875 C 9.226562 -7.890625 8.9375 -8.203125 8.59375 -8.484375 C 8.300781 -8.710938 7.929688 -8.921875 7.484375 -9.109375 C 7.035156 -9.304688 6.507812 -9.40625 5.90625 -9.40625 C 5.300781 -9.40625 4.734375 -9.289062 4.203125 -9.0625 C 3.679688 -8.832031 3.222656 -8.519531 2.828125 -8.125 C 2.429688 -7.726562 2.117188 -7.257812 1.890625 -6.71875 C 1.671875 -6.1875 1.5625 -5.609375 1.5625 -4.984375 C 1.5625 -4.359375 1.671875 -3.773438 1.890625 -3.234375 C 2.117188 -2.703125 2.429688 -2.238281 2.828125 -1.84375 C 3.222656 -1.445312 3.679688 -1.132812 4.203125 -0.90625 C 4.734375 -0.675781 5.300781 -0.5625 5.90625 -0.5625 C 6.519531 -0.5625 7.050781 -0.65625 7.5 -0.84375 C 7.945312 -1.039062 8.328125 -1.257812 8.640625 -1.5 C 8.984375 -1.757812 9.285156 -2.066406 9.546875 -2.421875 L 10.046875 -2 C 9.753906 -1.59375 9.398438 -1.234375 8.984375 -0.921875 C 8.640625 -0.648438 8.210938 -0.40625 7.703125 -0.1875 C 7.191406 0.03125 6.59375 0.140625 5.90625 0.140625 Z M 5.90625 0.140625 "/></g></g></g><g fill="#1e3608" fill-opacity="1"><g transform="translate(138.504884, 13.820608)"><g><path d="M 5.90625 0.140625 C 5.21875 0.140625 4.566406 0.0078125 3.953125 -0.25 C 3.335938 -0.519531 2.800781 -0.882812 2.34375 -1.34375 C 1.882812 -1.8125 1.519531 -2.359375 1.25 -2.984375 C 0.988281 -3.609375 0.859375 -4.273438 0.859375 -4.984375 C 0.859375 -5.703125 0.988281 -6.367188 1.25 -6.984375 C 1.519531 -7.609375 1.882812 -8.148438 2.34375 -8.609375 C 2.800781 -9.078125 3.335938 -9.445312 3.953125 -9.71875 C 4.566406 -9.988281 5.21875 -10.125 5.90625 -10.125 C 6.601562 -10.125 7.257812 -9.988281 7.875 -9.71875 C 8.488281 -9.445312 9.023438 -9.078125 9.484375 -8.609375 C 9.941406 -8.148438 10.300781 -7.609375 10.5625 -6.984375 C 10.832031 -6.367188 10.96875 -5.703125 10.96875 -4.984375 C 10.96875 -4.273438 10.832031 -3.609375 10.5625 -2.984375 C 10.300781 -2.359375 9.941406 -1.8125 9.484375 -1.34375 C 9.023438 -0.882812 8.488281 -0.519531 7.875 -0.25 C 7.257812 0.0078125 6.601562 0.140625 5.90625 0.140625 Z M 5.90625 -0.5625 C 6.519531 -0.5625 7.085938 -0.675781 7.609375 -0.90625 C 8.140625 -1.132812 8.597656 -1.445312 8.984375 -1.84375 C 9.378906 -2.238281 9.691406 -2.703125 9.921875 -3.234375 C 10.148438 -3.773438 10.265625 -4.359375 10.265625 -4.984375 C 10.265625 -5.609375 10.148438 -6.1875 9.921875 -6.71875 C 9.691406 -7.257812 9.378906 -7.726562 8.984375 -8.125 C 8.597656 -8.519531 8.140625 -8.832031 7.609375 -9.0625 C 7.085938 -9.289062 6.519531 -9.40625 5.90625 -9.40625 C 5.300781 -9.40625 4.734375 -9.289062 4.203125 -9.0625 C 3.679688 -8.832031 3.222656 -8.519531 2.828125 -8.125 C 2.429688 -7.726562 2.117188 -7.257812 1.890625 -6.71875 C 1.671875 -6.1875 1.5625 -5.609375 1.5625 -4.984375 C 1.5625 -4.359375 1.671875 -3.773438 1.890625 -3.234375 C 2.117188 -2.703125 2.429688 -2.238281 2.828125 -1.84375 C 3.222656 -1.445312 3.679688 -1.132812 4.203125 -0.90625 C 4.734375 -0.675781 5.300781 -0.5625 5.90625 -0.5625 Z M 5.90625 -0.5625 "/></g></g></g></g></g></svg>